<svg xmlns="http://www.w3.org/2000/svg" width="50" height="50" viewBox="0 0 50 50" fill="none">
  <path d="M25.2972 41.0773C29.122 41.0773 32.4099 35.1203 33.2725 33.7043C34.3142 31.9953 33.8259 30.2863 33.8259 29.2283C33.8259 28.382 36.0557 26.9008 36.0557 25.0455C36.0557 23.1248 31.7425 21.8228 31.7425 20.6835C31.7425 19.9998 32.2797 19.3325 32.8655 19.3325C33.8259 19.3325 36.0394 22.2622 37.3415 22.2622C38.1715 22.2622 38.1715 21.5298 38.6599 21.5298C39.7504 21.5298 39.9945 27.4705 43.1032 28.9353C43.8844 27.9752 44.3565 26.7382 44.3565 25.2082C44.3565 14.4009 35.4372 4.97705 24.1742 5.04216C18.3636 5.05843 15.9059 7.10921 15.9059 9.37159C15.9059 12.1873 13.6273 12.8384 13.6273 14.4823C13.6273 15.4751 14.3272 16.1587 15.4014 16.1587C17.8265 16.1587 17.7614 13.5383 19.1286 13.5383C20.1052 13.5545 20.9515 14.8892 22.335 14.8892C23.0185 14.8892 23.344 14.4823 23.3929 13.9289C23.4905 13.6196 23.5882 13.4569 23.8649 13.4569C25.2484 13.4569 26.8272 15.0031 26.8272 15.9471C26.8272 16.8423 26.5017 17.591 25.8994 17.591C24.9229 17.591 22.579 16.4028 20.4957 16.4028C15.8083 16.4028 11.9183 19.7883 11.9183 23.727C11.9183 27.1613 13.9528 29.147 17.4684 29.147C19.682 29.147 21.3095 30.6443 21.3095 32.6788C21.3095 35.8038 20.9677 41.0773 25.2972 41.0773ZM30.5219 12.5454C29.7894 12.5454 29.4639 12.9198 28.8129 12.9198C28.1619 12.9198 27.6899 12.4803 27.6899 11.8293C27.6899 10.8364 28.6664 10.283 30.3754 10.283C31.8239 10.283 32.8982 11.0317 32.8982 11.992C32.8982 12.5454 32.5564 12.9686 32.1005 12.9686C31.3519 12.9686 30.9612 12.5454 30.5219 12.5454ZM24.1904 46.3997C35.7952 46.3997 45.3982 36.7967 45.3982 25.2082C45.3982 13.6034 35.779 4.00049 24.1742 4.00049C12.5856 4.00049 2.99902 13.6034 2.99902 25.2082C2.99902 36.7967 12.6019 46.3997 24.1904 46.3997ZM24.1904 43.9257C13.9528 43.9257 5.47299 35.4458 5.47299 25.2082C5.47299 14.9543 13.9365 6.47446 24.1742 6.47446C34.428 6.47446 42.9242 14.9543 42.9242 25.2082C42.9242 35.4458 34.4444 43.9257 24.1904 43.9257Z" fill="white"/>
</svg>