<svg xmlns="http://www.w3.org/2000/svg" width="59" height="32" viewBox="0 0 59 32" fill="none">
  <g clip-path="url(#clip0_492_18365)">
    <path d="M18.2694 20.3817C15.735 22.5831 14.3103 25.3912 14.3103 27.8986C14.3103 28.6305 14.4985 29.3143 14.8601 29.8965H2.58765C0.758242 29.8965 0 29.1744 0 27.7783C0 23.4575 4.35689 18.3423 11.3375 18.3423C14.0966 18.3423 16.4456 19.1413 18.2694 20.3817ZM16.7175 10.0137C16.7175 13.3717 14.2622 15.9593 11.3496 15.9593C8.43694 15.9593 5.98169 13.3717 5.98169 10.0378C5.98169 6.77616 8.46101 4.22461 11.3496 4.22461C14.2381 4.22461 16.7175 6.72801 16.7175 10.0137Z" fill="white" fill-opacity="0.5"/>
    <path d="M58.4448 27.7783C58.4448 29.1744 57.6865 29.8965 55.8692 29.8965H43.6422C44.0052 29.3143 44.1947 28.6305 44.1947 27.8986C44.1947 25.3826 42.7601 22.5637 40.209 20.3583C42.0283 19.1315 44.3654 18.3423 47.1073 18.3423C54.0879 18.3423 58.4448 23.4575 58.4448 27.7783ZM52.4872 10.0137C52.4872 13.3717 50.044 15.9593 47.1314 15.9593C44.2187 15.9593 41.7515 13.3717 41.7515 10.0378C41.7515 6.77616 44.2308 4.22461 47.1314 4.22461C50.0199 4.22461 52.4872 6.72801 52.4872 10.0137Z" fill="white" fill-opacity="0.5"/>
    <path d="M29.2581 15.6102C32.616 15.6102 35.4324 12.6374 35.4324 8.77401C35.4324 5.00687 32.592 2.13037 29.2581 2.13037C25.9363 2.13037 23.0959 5.05501 23.0959 8.79808C23.0959 12.6374 25.9122 15.6102 29.2581 15.6102ZM18.7631 29.8965H39.7411C41.3057 29.8965 42.2686 29.1383 42.2686 27.8985C42.2686 23.9027 37.2738 18.3905 29.2461 18.3905C21.2184 18.3905 16.2236 23.9027 16.2236 27.8985C16.2236 29.1383 17.1864 29.8965 18.7631 29.8965Z" fill="white"/>
  </g>
  <defs>
    <clipPath id="clip0_492_18365">
      <rect width="58.8901" height="31.81" fill="white"/>
    </clipPath>
  </defs>
</svg>